<svg preserveAspectRatio="none" overflow="visible" style="display: block;" width="80" height="80" viewBox="0 0 80 80" fill="none" xmlns="http://www.w3.org/2000/svg">
<g id="Vector">
<path id="Vector_2" d="M8.68859 33.7564C7.86703 33.7865 5.9367 33.9191 5.29768 33.4405C4.74405 32.5206 4.98756 28.2088 5.1012 27.0085C5.17484 26.2305 6.33548 26.2278 6.97227 26.2294C12.2259 26.2424 17.4809 26.2372 22.7352 26.2369L55.5405 26.2352L67.3938 26.2346C68.9052 26.2345 73.3521 26.0477 74.487 26.4044C74.6285 26.4488 74.6998 26.5872 74.7612 26.7139C75.1705 27.5587 75.1823 32.2425 74.8571 33.171C74.7803 33.3903 74.67 33.4949 74.4624 33.589C73.704 33.9327 72.1126 33.842 71.2814 33.741C70.9959 37.7289 70.4733 41.8418 70.0983 45.833C70.0191 46.6754 69.8343 49.1929 69.645 49.8716C70.0574 50.4217 70.6314 50.7129 71.1302 51.1611C72.6182 52.501 74.441 53.6327 75.7052 55.1805C77.1083 56.8985 75.3351 59.3762 73.3654 59.106C71.7404 58.8832 70.3119 56.8167 69.0059 56.0227C69.0359 56.8447 68.8673 58.2285 68.7861 59.0854L68.2264 64.6194C68.0656 66.1448 67.9753 67.7602 67.7158 69.2772C67.6425 69.7057 67.3516 70.1915 67.0573 70.5068C66.3701 71.243 65.4884 71.2739 64.5476 71.2788C61.0478 71.2971 57.5387 71.2814 54.0389 71.2811L33.1766 71.2809L20.8793 71.2816C18.7652 71.2826 16.6365 71.3295 14.5263 71.2376C13.4194 71.1894 12.42 70.2159 12.2556 69.1344C11.9985 67.4433 11.8908 65.7064 11.7183 64.0023L11.2316 59.2484C11.151 58.4744 10.9148 56.8065 11.0013 56.1151C10.5975 56.3452 10.312 56.6427 9.95711 56.9351C8.64953 58.0121 8.14172 58.7327 6.4858 59.2734C5.16909 58.9741 3.98654 58.434 3.82045 56.8984C3.65918 55.0812 5.36374 54.1993 6.43104 53.1843C7.56407 52.1068 9.39289 51.0019 10.3685 49.9254C10.1314 49.055 10.009 46.8781 9.90367 45.8659L8.95617 36.3859C8.91641 35.9578 8.79227 33.9673 8.68859 33.7564Z" fill="#E0E0E0"/>
<path id="Vector_3" d="M8.68859 33.7564C7.86703 33.7865 5.93669 33.9191 5.29768 33.4405C4.74405 32.5206 4.98756 28.2088 5.1012 27.0085C5.17484 26.2305 6.33548 26.2278 6.97227 26.2294C12.2259 26.2424 17.4809 26.2372 22.7352 26.2369L55.5405 26.2352L67.3938 26.2346C68.9052 26.2345 73.3521 26.0477 74.487 26.4044C74.6285 26.4488 74.6998 26.5872 74.7612 26.7139C75.1705 27.5587 75.1823 32.2425 74.8571 33.171C74.7803 33.3903 74.67 33.4949 74.4624 33.589C73.704 33.9327 72.1126 33.842 71.2814 33.741L56.8728 33.7493L52.5734 33.7512C52.0484 33.7531 50.8418 33.7298 50.402 33.8095C48.6242 32.795 46.5581 29.2153 44.1294 31.4809C43.4526 32.1123 43.3522 32.8145 43.3348 33.6928C42.733 33.7862 37.2613 33.8029 36.6574 33.6735C36.6423 32.8251 36.5139 32.1719 35.8761 31.5651C33.7895 29.5801 31.9448 32.0166 30.356 33.2737C30.1747 33.4172 29.8159 33.7634 29.6368 33.8605C28.6359 33.6821 25.8316 33.7498 24.6855 33.7492L13.5584 33.7443L10.3453 33.7559C9.86937 33.7598 9.12992 33.802 8.68859 33.7564Z" fill="#CDCDCD"/>
<path id="Vector_4" d="M29.6368 33.8605C29.8159 33.7634 30.1747 33.4172 30.356 33.2737C31.9448 32.0166 33.7895 29.5801 35.8761 31.5651C36.5139 32.1719 36.6423 32.8251 36.6574 33.6735C36.5334 34.0563 36.4102 34.4495 36.143 34.7534C35.1365 35.898 33.6721 37.0102 32.4916 37.9966L26.1884 43.2662C25.7153 43.6622 24.097 44.9733 23.7504 45.3716C22.9402 45.9518 21.9883 46.7984 21.2468 47.4671C20.227 48.145 17.8151 50.3048 16.7034 51.237L13.2409 54.1389C12.5444 54.7238 11.6078 55.4704 11.0013 56.1151C10.5975 56.3452 10.312 56.6427 9.95711 56.9351C8.64953 58.0121 8.14172 58.7327 6.4858 59.2734C5.16909 58.9741 3.98654 58.434 3.82045 56.8984C3.65918 55.0812 5.36374 54.1993 6.43104 53.1843C7.56407 52.1068 9.39289 51.002 10.3685 49.9254C10.1314 49.055 10.009 46.8781 9.90367 45.8659L8.95617 36.3859C8.91641 35.9578 8.79227 33.9673 8.68859 33.7564C9.12992 33.802 9.86938 33.7598 10.3453 33.7559L13.5584 33.7443L24.6855 33.7492C25.8316 33.7498 28.6359 33.6821 29.6368 33.8605Z" fill="#A3A3A3"/>
<path id="Vector_5" d="M8.68859 33.7564C9.12992 33.8019 9.86937 33.7598 10.3453 33.7559L13.5584 33.7443L24.6855 33.7492C25.8316 33.7498 28.6359 33.6821 29.6368 33.8605L23.5573 38.9636C22.965 39.4539 22.2919 39.8998 21.7299 40.3826L13.5184 47.3981C12.9864 47.8445 10.8543 49.6856 10.3685 49.9254C10.1314 49.055 10.009 46.8781 9.90367 45.8659L8.95617 36.3859C8.91641 35.9578 8.79226 33.9673 8.68859 33.7564Z" fill="#E0E0E0"/>
<path id="Vector_6" d="M43.3348 33.6928C43.3522 32.8145 43.4526 32.1123 44.1294 31.4809C46.5581 29.2153 48.6242 32.795 50.402 33.8095C50.8418 33.7298 52.0484 33.7531 52.5734 33.7512L56.8728 33.7493L71.2814 33.741C70.9959 37.7289 70.4733 41.8418 70.0983 45.833C70.0191 46.6754 69.8343 49.1929 69.645 49.8716C70.0574 50.4217 70.6314 50.7129 71.1302 51.1611C72.6182 52.501 74.441 53.6327 75.7052 55.1805C77.1083 56.8985 75.3351 59.3762 73.3654 59.106C71.7404 58.8832 70.3119 56.8167 69.0059 56.0227C68.6072 55.7486 67.7988 54.9295 67.3466 54.5598C65.4437 52.9866 63.551 51.4009 61.6688 49.803C60.8398 49.1045 59.597 47.9949 58.7492 47.3847C58.0692 46.7835 56.9594 45.7934 56.24 45.2855C56.0805 45.0865 54.3092 43.6226 54.0241 43.3837L47.5545 37.9733C46.2638 36.8948 43.8484 35.2081 43.3348 33.6928Z" fill="#A3A3A3"/>
<path id="Vector_7" d="M50.402 33.8095C50.8418 33.7298 52.0484 33.7531 52.5734 33.7512L56.8728 33.7493L71.2814 33.741C70.9959 37.7289 70.4733 41.8418 70.0983 45.833C70.0191 46.6754 69.8343 49.1929 69.645 49.8716C69.1143 49.5961 67.9214 48.5487 67.4205 48.1281L63.7734 45.0679C59.7248 41.6686 55.7026 38.2407 51.6289 34.8696C51.2152 34.5272 50.8066 34.1639 50.402 33.8095Z" fill="#E0E0E0"/>
<path id="Vector_8" d="M56.24 45.2855C56.9594 45.7934 58.0692 46.7835 58.7492 47.3847L58.7419 58.604L58.7441 61.6329C58.7545 62.7395 59.1378 65.4365 57.0612 64.9122C56.6194 64.8007 56.2973 64.2884 56.2784 63.8341C56.1938 61.805 56.2286 59.7523 56.2291 57.7175L56.24 45.2855Z" fill="white"/>
<path id="Vector_9" d="M21.2468 47.4671C21.9883 46.7984 22.9402 45.9518 23.7504 45.3716L23.7639 57.7928C23.7645 59.7679 23.7985 61.76 23.7274 63.7305C23.6656 65.4425 21.2724 65.4128 21.2546 63.5869C21.238 61.8837 21.2509 60.1704 21.2505 58.4662L21.2468 47.4671Z" fill="white"/>
<path id="Vector_10" d="M39.698 40.0037C40.9541 39.9518 41.2188 40.6443 41.2316 41.7363C41.2515 43.4357 41.2468 45.133 41.2477 46.8325L41.2508 56.3158C41.2509 58.6618 41.3321 61.7683 41.1456 64.155C41.1175 64.5141 40.5935 64.8238 40.2949 64.9959C38.8933 65.0588 38.7364 64.2484 38.7413 63.0169C38.7706 55.6548 38.6245 48.2539 38.8091 40.9013C38.8188 40.5155 39.3912 40.1669 39.698 40.0037Z" fill="white"/>
<path id="Vector_11" d="M48.4484 40.0052C49.2557 39.9582 49.9409 40.307 49.9549 41.199C50.0659 48.298 49.9727 55.4075 50.0073 62.5089C50.0131 63.7118 50.183 64.3756 49.042 64.9977C48.2541 65.028 47.5487 64.6791 47.5357 63.8005C47.4312 56.6891 47.5127 49.5691 47.4898 42.4557C47.4858 41.212 47.293 40.6512 48.4484 40.0052Z" fill="white"/>
<path id="Vector_12" d="M30.9519 40.0052C32.3849 39.9299 32.5078 40.8484 32.4969 42.0709C32.4313 49.4023 32.6454 56.7891 32.4041 64.1055C32.3908 64.5081 31.8572 64.8259 31.5423 64.9976C30.3105 64.9879 29.997 64.472 30.0037 63.2159C30.0437 55.7802 29.8636 48.2787 30.0791 40.8555C30.0893 40.503 30.6754 40.1547 30.9519 40.0052Z" fill="white"/>
<path id="Vector_13" d="M54.875 13.6882C55.9727 13.7997 56.7131 14.8781 56.1775 15.4823C55.1359 16.657 51.0066 21.1628 49.8188 21.5775C48.681 21.497 48.0645 20.38 48.6086 19.7357C49.5139 18.6637 53.8417 13.9595 54.875 13.6882Z" fill="#EC221F"/>
<path id="Vector_14" d="M39.5309 7.5128C39.799 7.4919 40.0666 7.47636 40.3326 7.52702C40.6085 7.57959 40.9191 7.73066 41.0681 7.97984C41.3533 8.45695 41.4161 16.128 41.1895 16.7966C41.0558 17.1913 40.7282 17.3198 40.3793 17.4866C40.0309 17.5302 38.9834 17.4648 38.9251 16.9966C38.57 14.1491 38.7163 11.0155 38.8398 8.13633C38.8519 7.85469 39.3205 7.62111 39.5309 7.5128Z" fill="#EC221F"/>
<path id="Vector_15" d="M24.7315 13.6773C24.909 13.6942 25.4091 13.776 25.5407 13.8851C27.3053 15.365 28.8838 17.1087 30.5293 18.7255C31.4574 19.6374 31.8995 20.0627 31.1624 21.2272C30.957 21.3506 30.6602 21.4708 30.434 21.5695C30.3197 21.5712 30.2008 21.5699 30.0889 21.5428C29.3402 21.3609 24.4905 16.4698 23.8991 15.5741C23.7202 15.3032 23.6392 15.0532 23.7113 14.7291C23.8278 14.2056 24.3099 13.9353 24.7315 13.6773Z" fill="#EC221F"/>
</g>
</svg>
