<svg width="86" height="118" viewBox="0 0 86 118" fill="none" xmlns="http://www.w3.org/2000/svg">
  <rect x="1.5" y="1.5" width="83" height="115" rx="20.5" fill="#FFFFFF"/>
  <rect x="1.5" y="1.5" width="83" height="115" rx="20.5" stroke="#111827" stroke-opacity="0.28" stroke-width="3"/>
  <rect x="33" y="7" width="20" height="6" rx="3" fill="#111827"/>

  <text x="13" y="30" fill="#F97316" font-family="Arial, sans-serif" font-size="8" font-weight="700">Sacn to Download</text>

  <rect x="18" y="36" width="50" height="50" rx="6" fill="#FFFFFF" stroke="#F97316" stroke-width="1.8"/>
  <path d="M18 45V40H23" stroke="#F97316" stroke-width="2" stroke-linecap="round"/>
  <path d="M68 45V40H63" stroke="#F97316" stroke-width="2" stroke-linecap="round"/>
  <path d="M18 77V82H23" stroke="#F97316" stroke-width="2" stroke-linecap="round"/>
  <path d="M68 77V82H63" stroke="#F97316" stroke-width="2" stroke-linecap="round"/>

  <rect x="27" y="46" width="6" height="6" fill="#111827"/>
  <rect x="33" y="46" width="6" height="6" fill="#111827"/>
  <rect x="45" y="46" width="6" height="6" fill="#111827"/>
  <rect x="51" y="46" width="6" height="6" fill="#111827"/>
  <rect x="27" y="52" width="6" height="6" fill="#111827"/>
  <rect x="39" y="52" width="6" height="6" fill="#111827"/>
  <rect x="51" y="52" width="6" height="6" fill="#111827"/>
  <rect x="27" y="58" width="6" height="6" fill="#111827"/>
  <rect x="33" y="58" width="6" height="6" fill="#111827"/>
  <rect x="45" y="58" width="6" height="6" fill="#111827"/>
  <rect x="51" y="58" width="6" height="6" fill="#111827"/>
  <rect x="33" y="64" width="6" height="6" fill="#111827"/>
  <rect x="39" y="64" width="6" height="6" fill="#111827"/>
  <rect x="51" y="64" width="6" height="6" fill="#111827"/>
  <rect x="27" y="70" width="6" height="6" fill="#111827"/>
  <rect x="39" y="70" width="6" height="6" fill="#111827"/>
  <rect x="45" y="70" width="6" height="6" fill="#111827"/>
  <rect x="51" y="70" width="6" height="6" fill="#111827"/>
</svg>
