<svg width="222" height="170" viewBox="0 0 222 170" fill="none" xmlns="http://www.w3.org/2000/svg">
  <g opacity="0.95">
    <path d="M15 50C20 45 28 45 33 50L38 55L33 60C28 65 20 65 15 60L10 55L15 50Z" fill="#F59E0B"/>
    <circle cx="26" cy="55" r="2.2" fill="#FFFFFF"/>
    <circle cx="20" cy="55" r="1.8" fill="#FFFFFF"/>
  </g>
  <g opacity="0.95">
    <path d="M206 101H218V113H206V101Z" fill="#EF4444"/>
    <path d="M204 99H216V111H204V99Z" fill="#F59E0B"/>
    <path d="M209 92H221V104H209V92Z" fill="#FCD34D"/>
  </g>
  <g opacity="0.95">
    <path d="M183 58C188 53 196 53 201 58L206 63L201 68C196 73 188 73 183 68L178 63L183 58Z" fill="#F59E0B"/>
    <circle cx="194" cy="63" r="2.2" fill="#FFFFFF"/>
    <circle cx="188" cy="63" r="1.8" fill="#FFFFFF"/>
  </g>

  <rect x="45" y="2" width="122" height="166" rx="28" fill="#FFFFFF"/>
  <rect x="46.5" y="3.5" width="119" height="163" rx="26.5" stroke="#111827" stroke-opacity="0.18" stroke-width="3"/>
  <rect x="92" y="9" width="28" height="8" rx="4" fill="#111827"/>

  <text x="63" y="42" fill="#F97316" font-family="Arial, sans-serif" font-size="13" font-weight="700">Sacn to Download</text>

  <rect x="69" y="52" width="74" height="74" rx="8" fill="#FFFFFF" stroke="#F97316" stroke-width="2"/>

  <path d="M69 65V58H76" stroke="#F97316" stroke-width="3" stroke-linecap="round"/>
  <path d="M143 65V58H136" stroke="#F97316" stroke-width="3" stroke-linecap="round"/>
  <path d="M69 113V120H76" stroke="#F97316" stroke-width="3" stroke-linecap="round"/>
  <path d="M143 113V120H136" stroke="#F97316" stroke-width="3" stroke-linecap="round"/>

  <rect x="82" y="67" width="8" height="8" fill="#111827"/>
  <rect x="90" y="67" width="8" height="8" fill="#111827"/>
  <rect x="106" y="67" width="8" height="8" fill="#111827"/>
  <rect x="114" y="67" width="8" height="8" fill="#111827"/>

  <rect x="82" y="75" width="8" height="8" fill="#111827"/>
  <rect x="98" y="75" width="8" height="8" fill="#111827"/>
  <rect x="114" y="75" width="8" height="8" fill="#111827"/>

  <rect x="82" y="83" width="8" height="8" fill="#111827"/>
  <rect x="90" y="83" width="8" height="8" fill="#111827"/>
  <rect x="106" y="83" width="8" height="8" fill="#111827"/>
  <rect x="114" y="83" width="8" height="8" fill="#111827"/>

  <rect x="90" y="91" width="8" height="8" fill="#111827"/>
  <rect x="98" y="91" width="8" height="8" fill="#111827"/>
  <rect x="114" y="91" width="8" height="8" fill="#111827"/>

  <rect x="82" y="99" width="8" height="8" fill="#111827"/>
  <rect x="98" y="99" width="8" height="8" fill="#111827"/>
  <rect x="106" y="99" width="8" height="8" fill="#111827"/>
  <rect x="114" y="99" width="8" height="8" fill="#111827"/>
</svg>
